<svg id="Layer_1" data-name="Layer 1" xmlns="http://www.w3.org/2000/svg" viewBox="0 0 2334.18 2363.8"><defs><style>.cls-1{fill:#fff;}</style></defs><title>pkkmb-1</title><path class="cls-1" d="M1627.51,72.59c-3.1,1.2-1.6,6,9.7,31.8,1.7,3.9,27.9,66.1,31.5,75,17.6,42.6,29.2,79,42.9,134.5,12.9,52.3,19.4,84.5,25.5,126,12.3,83.6,15.3,175.9,9,270.3l-1.2,17.7-2.9-2.7c-1.5-1.5-2.8-3.2-2.8-3.8,0-1.7-6.7-7.8-7.8-7.1a1.2,1.2,0,0,1-1.6-.3c-.3-.5-2.3-.8-4.5-.7-2.9.1-4.4.8-5.9,2.6-2.2,2.8-2.2,3-2.7,12.7-.2,4-.6,7.7-1,8.3s-.5,1.4-.2,1.7-.1,2.6-.9,5.1-1.6,5.1-1.7,5.7a17.6,17.6,0,0,1-.9,2,8.12,8.12,0,0,0-.4,3.8c.2,1.5-.1,3-.6,3.3a1.72,1.72,0,0,0-.4,2,1.67,1.67,0,0,1-.5,2,1.6,1.6,0,0,0-.5,2,1.5,1.5,0,0,1-.5,1.9,2.17,2.17,0,0,0-.8,1.8,7.78,7.78,0,0,1-.4,2.9c-.4,1-1,2.6-1.4,3.5a7.59,7.59,0,0,0-.4,2.7,2.92,2.92,0,0,1-.9,2c-.5.7-.7,1.6-.3,1.9s0,1.3-.6,2.1a2.65,2.65,0,0,0-.7,2.5,1.1,1.1,0,0,1-.4,1.6,2.82,2.82,0,0,0-1,2.1,17.55,17.55,0,0,1-1.7,5.2,23.09,23.09,0,0,0-1.7,4.6,2.09,2.09,0,0,1-1.3,1.3c-.9.3-1.3-.7-1.4-2.9-.3-7.9-.6-10.4-1.6-12.7a15.79,15.79,0,0,1-.6-5.9,8.35,8.35,0,0,0-.6-4.6c-.6-.7-1.1-3-1.2-5.1a17.34,17.34,0,0,0-.8-5,16.73,16.73,0,0,1-.7-4.5,25.67,25.67,0,0,0-1.1-6,6.64,6.64,0,0,1-.6-3.6,1.71,1.71,0,0,0-.6-1.9c-.6-.3-1.1-2.4-1.1-4.5s-.4-4.2-1-4.5-.8-1.9-.6-3.5c.2-1.8-.2-3.1-1.1-3.4a1.18,1.18,0,0,1-.8-1.6,2.45,2.45,0,0,0-.5-2.5c-.6-.8-1-1.8-.7-2.2s0-1.9-.6-3.3a23.35,23.35,0,0,1-1.2-4.5,23.28,23.28,0,0,0-.8-3.8c-.4-.9-1-2.5-1.4-3.5a20.12,20.12,0,0,1-.8-3.7,21,21,0,0,0-1.5-5,17.5,17.5,0,0,1-1.5-4,27.75,27.75,0,0,0-1.5-4,17.5,17.5,0,0,1-1.5-4,27.75,27.75,0,0,0-1.5-4,17.5,17.5,0,0,1-1.5-4,27.75,27.75,0,0,0-1.5-4,24.54,24.54,0,0,1-1.5-4,15.5,15.5,0,0,0-1.7-4.2,34.49,34.49,0,0,1-2.3-6.3c-.4-1.6-1.1-3.2-1.6-3.5a3.24,3.24,0,0,1-.9-2.3,14.17,14.17,0,0,0-1.5-4.6,13,13,0,0,1-1.5-4.1,4.22,4.22,0,0,0-1.5-2.5c-.8-.7-1.3-1.6-1-2s-.2-1.3-1-2a2.83,2.83,0,0,1-.9-2.5c.3-.7-.4-1.8-1.5-2.4s-1.8-1.7-1.5-2.5a1.94,1.94,0,0,0-.5-2.1,1.11,1.11,0,0,1-.5-1.6c.3-.6-.4-1.7-1.6-2.6s-1.9-2.1-1.6-2.8a3.75,3.75,0,0,0-1.4-3c-1.1-1-1.7-2.1-1.5-2.6s.1-1-.5-1.4a3.5,3.5,0,0,1-1-2.6,4.54,4.54,0,0,0-1.9-3.1c-1-.6-1.7-1.7-1.5-2.3a2.44,2.44,0,0,0-1.1-2.5,4.22,4.22,0,0,1-1.5-2.5,4.22,4.22,0,0,0-1.5-2.5,4.57,4.57,0,0,1-1.5-3,4.57,4.57,0,0,0-1.5-3c-.8-.7-1.3-1.6-1-2s-.7-1.8-2-3-2.5-3.1-2.5-4.1a2.84,2.84,0,0,0-1.5-2.3,2.74,2.74,0,0,1-1.5-2.4,6.23,6.23,0,0,0-2-3.7c-1.1-1-2-2.3-2-3s-1.1-2.2-2.5-3.5-2.2-2.7-1.9-3.2-.6-1.8-2-2.9-2.6-2.9-2.6-3.9-1.2-2.8-2.7-4-2.8-2.8-2.8-3.6-1.6-2.9-3.5-4.9-3-3.5-2.5-3.5-1.1-2-3.5-4.5-4-4.5-3.5-4.5-1.1-2-3.5-4.5-4-4.5-3.5-4.5-1.6-2.6-4.8-5.8-5.5-6.1-5.2-6.4-2.8-3.6-6.9-7.3-7.6-7.5-7.8-8.4c-.4-2.2-55.6-53.3-56.8-52.6-.5.3-4.3-2.6-8.4-6.6s-7.9-6.8-8.4-6.5-3.4-1.7-6.4-4.4-5.8-4.6-6.2-4.3-2.1-.8-4-2.6-3.7-3.1-4.2-2.9-3-1.4-5.5-3.5-5.3-3.7-6.1-3.7a6,6,0,0,1-3.3-2c-1-1.2-2.4-1.9-3.1-1.6s-2.4-.9-4-2.5-3.5-2.9-4.4-2.9-2.7-1.1-4-2.5-3.1-2.5-4-2.5a6.07,6.07,0,0,1-3.5-2,5.87,5.87,0,0,0-3.4-2,9,9,0,0,1-4.1-2,9,9,0,0,0-4.1-2,4.57,4.57,0,0,1-2.9-1.5c-.7-.8-1.6-1.3-2-1s-1.9-.5-3.4-1.6-3-1.8-3.5-1.5-1.6-.3-2.6-1.4-2.2-1.7-2.7-1.4-1.8-.2-2.8-1.1-2.3-1.4-2.8-1.1-1.7-.3-2.7-1.4-2.2-1.7-2.7-1.4-1.8-.2-2.8-1.1-2.3-1.4-2.8-1.1-1.7-.3-2.7-1.4-2.2-1.7-2.7-1.4a2.48,2.48,0,0,1-2.4-.7c-1.1-.9-1.8-.9-2.6-.1a6.56,6.56,0,0,1-4,1.2c-2.1,0-2.8.5-2.8,1.9a4.8,4.8,0,0,1-1.5,3.1c-1.6,1.4-1.5,4.1.3,6.2.6.8.9,1.8.5,2.1s.1,1.5.9,2.4c1.8,2.2,3.2,5.4,2.9,7-.1.6.8,1.8,2,2.6s1.9,2,1.5,2.5.3,1.7,1.4,2.7,1.7,2.1,1.5,2.5.4,1.5,1.5,2.5,1.7,2.2,1.4,2.7,0,1.7.8,2.6c2.1,2.7,3.8,6.1,3.8,7.6a3.69,3.69,0,0,0,1.7,2.5c1,.5,1.4,1.3,1,1.7s.3,1.8,1.5,3.1,1.8,2.3,1.3,2.3.2,1.1,1.5,2.5,2.1,2.8,1.7,3.1.3,2.2,1.4,4.1l2,3.6-3.3-2.8c-7.4-6.2-16.8-15.5-16.8-16.7,0-1.7-31.8-31.1-32.9-30.4-.4.3-5.2-3.5-10.5-8.4s-10.2-8.7-10.7-8.4-3.6-2-6.9-5.2-6.3-5.4-6.6-5.1-3-1.3-5.8-3.7-5.6-4.2-6.1-4-2.8-1.4-5-3.6-4.6-4-5.5-4-2.9-1.4-4.5-3-3.4-2.9-4-2.7-2.6-.8-4.5-2.3-4-2.5-4.6-2.3-1.9-.6-2.9-1.7a6.07,6.07,0,0,0-3.5-2,6.07,6.07,0,0,1-3.5-2c-1-1.2-2.4-1.9-3.1-1.6s-2.2-.7-3.5-2-2.8-2.3-3.5-2-2.2-.7-3.5-2-2.9-2.2-3.5-2a2.32,2.32,0,0,1-2.4-1,4.45,4.45,0,0,0-3-1.4,4.57,4.57,0,0,1-3-1.5,2.58,2.58,0,0,0-2.6-1.1c-.6.2-2.2-.7-3.5-2s-2.9-2.2-3.5-2a2.32,2.32,0,0,1-2.4-1,4.45,4.45,0,0,0-3-1.4,4.57,4.57,0,0,1-3-1.5,2.58,2.58,0,0,0-2.6-1.1,2.32,2.32,0,0,1-2.4-1,4.2,4.2,0,0,0-2.7-1.4,9.36,9.36,0,0,1-3.8-1.6c-1.4-.9-2.5-1.3-2.5-.9s-.7.2-1.5-.5-1.8-.9-2.3-.6a1.81,1.81,0,0,1-2.1-.8c-.7-.8-2.8-1.7-4.9-2.1a14.4,14.4,0,0,1-5.4-2.2c-.9-.8-2.1-1.2-2.7-.9a1,1,0,0,1-1.5-.3c-.3-.5-2.3-1.2-4.3-1.6a14.26,14.26,0,0,1-5.5-2.2c-.9-.8-2.1-1.2-2.7-.9a1.11,1.11,0,0,1-1.6-.5,1.94,1.94,0,0,0-2.1-.5,1.61,1.61,0,0,1-1.9-.4c-.3-.4-2.3-1.1-4.5-1.5s-4.2-1.1-4.6-1.6a1,1,0,0,0-1.5-.3,2.65,2.65,0,0,1-2.5-.7c-.8-.6-1.7-.9-2.1-.6s-1.3.1-2.1-.6a9.45,9.45,0,0,0-4.1-1.3,21,21,0,0,1-4.6-.8c-4.4-1.7-5-1.9-6.2-2.3-.7-.1-2.1-.5-3-.7a17,17,0,0,1-2.3-.7,10.2,10.2,0,0,0-1.5-.4,13.84,13.84,0,0,1-2.8-1,6.57,6.57,0,0,0-3.7-.2,2.72,2.72,0,0,1-2.5-.3c-.3-.5-2.3-1.1-4.5-1.5s-4.2-1-4.5-1.5-1.7-.6-3.2-.4a8.12,8.12,0,0,1-3.8-.4,7.35,7.35,0,0,0-3-.7,7.16,7.16,0,0,1-3.2-.8,2,2,0,0,0-2.2-.2,1.22,1.22,0,0,1-1.6-.5c-.3-.5-1.9-.8-3.6-.6s-3.2,0-3.5-.5-1.8-.7-3.5-.5-3.2,0-3.4-.5a3.29,3.29,0,0,0-2.3-.8c-4.7-.1-12.9-1-14.3-1.6a16.84,16.84,0,0,0-5.3-.2c-2,.2-3.9,0-4.2-.5s-2.2-.8-4.3-.7a17.29,17.29,0,0,1-5.1-.4c-.8-.4-3.7-.7-6.5-.7-13.9-.2-20.1-.6-21-1.1-1.6-.9-12.4-.3-13.7.8a4.68,4.68,0,0,1-3.1.8,8.67,8.67,0,0,0-4.4,1c-1.5.8-3.1,1.2-3.5.9-1.2-.8-4.8,2.5-4.8,4.3a1.23,1.23,0,0,0,1.1,1.3c.6,0,.9.6.6,1.4-.6,1.5,3.4,5.9,4.9,5.4.5-.2,3.6,1.9,6.7,4.7s6.5,5,7.3,5,3.7,2.4,6.7,5.3,6,5.2,7,5.2,4.8,2.9,8.6,6.5,7.5,6.5,8.4,6.5,7.8,5.8,15.5,13,14.7,13,15.5,13c1.8,0,44.9,39.9,44.2,40.9-.2.5,5,5.9,11.8,12.1s12.1,11.8,12,12.4,3.8,4.9,8.7,9.5,8.8,8.6,8.5,9.1,2.5,3.6,6.2,7,6.7,6.8,6.5,7.5,1.8,3.1,4.3,5.2,4.3,4.3,4.1,5,2,3.3,5,5.9,5.3,5.3,5,6,1.3,2.7,3.4,4.4,4,4,4,5,1.6,3.1,3.5,4.6,3.5,3.5,3.5,4.5,1.8,3.2,3.9,5,3.8,3.6,3.5,4.3.9,2.5,2.6,4.1,3,3.4,3,4,1.6,2.6,3.5,4.5,3.5,3.9,3.5,4.5,1.1,2.2,2.5,3.5,2.2,2.6,2,3,.9,2,2.5,3.5,3,3.6,3,4.6,1.1,2.4,2.5,3.3,2.2,2.2,1.9,2.9.7,2.4,2,3.6,2.3,2.7,2.1,3.1.7,1.8,2,3,2.5,2.9,2.5,3.5,1.1,2.2,2.4,3.4,2.2,2.9,1.9,3.6.7,2.1,2.2,3.1,2.4,2.3,2.1,3,.4,2,1.4,2.9,1.8,2.1,1.5,2.5.7,1.8,2,3,2.5,3.1,2.5,4.1,1.1,2.4,2.5,3.3,2.2,2.2,1.9,2.9a2.66,2.66,0,0,0,1.1,2.7,4.22,4.22,0,0,1,1.5,2.5,5.92,5.92,0,0,0,1.9,2.9c1.1,1,1.7,2.4,1.5,3.1s.4,1.9,1.5,2.7,1.8,1.8,1.4,2.2.6,2,2.2,3.6,2.5,3,2,3,0,.9,1.1,2.1a7.48,7.48,0,0,1,1.9,3.2,15.86,15.86,0,0,0,3.2,6.9c.8.9,1.2,2.1.9,2.7s.3,1.6,1.5,2.5,1.9,1.9,1.5,2.4.3,1.7,1.4,2.7,1.7,2.1,1.5,2.5.4,1.5,1.5,2.5,1.7,2.1,1.5,2.6.4,2.3,1.5,4.1,2.2,4,2.6,4.8a21,21,0,0,0,1.5,3c1.7,2.8,3.2,6.5,3,7.4-.1.5.7,1.5,1.9,2.3s1.8,1.8,1.5,2.3c-.6.9.9,4.2,3.3,7.1a4.31,4.31,0,0,1,1.1,2.5c-.3,1.4,1.8,5.9,3.4,7.3a2.52,2.52,0,0,1,1.1,2.6,1.83,1.83,0,0,0,.5,2,1.12,1.12,0,0,1,.6,1.5c-.3.4.2,1.3,1,2a2.52,2.52,0,0,1,.9,2.5,1.83,1.83,0,0,0,.5,2,1.12,1.12,0,0,1,.6,1.5c-.3.4.2,1.3,1,2a2.83,2.83,0,0,1,.9,2.5c-.3.8.3,1.9,1.4,2.6s1.8,1.8,1.5,2.5a1.57,1.57,0,0,0,.6,1.8,1.78,1.78,0,0,1,.5,2.1,1.56,1.56,0,0,0,1,2.1c.9.3,1.3,1,1,1.5a2.59,2.59,0,0,0,.6,2.4,2.45,2.45,0,0,1,.5,2.5c-.3.5.1,1.3.9,1.6s1.3,1,1,1.6.1,1.7.9,2.6a15.27,15.27,0,0,1,3.2,7.4,17,17,0,0,0,1,3.5,19.65,19.65,0,0,1,1,2.8,15.89,15.89,0,0,0,3.3,6.8c.8.9,1.2,2,.9,2.4s-.2,1.2.4,1.9a10.06,10.06,0,0,1,1.3,3.6,18.41,18.41,0,0,0,1.6,5.3,27.75,27.75,0,0,1,1.5,4,17.5,17.5,0,0,0,1.5,4,12.07,12.07,0,0,1,1.2,3.7c-.1.4.6,2.2,1.6,4a13.17,13.17,0,0,1,1.6,6c-.2,1.5.3,2.9,1.1,3.2a1.55,1.55,0,0,1,.9,2,1.6,1.6,0,0,0,.5,2,1.67,1.67,0,0,1,.5,2,1.48,1.48,0,0,0,.9,1.9c1,.4,1.3,1.6,1.1,3.6-.2,1.6.1,3.3.6,3.6a1.1,1.1,0,0,1,.5,1.5c-.3.4.1,1.3.9,1.9a3.26,3.26,0,0,1,.9,3.1,4.08,4.08,0,0,0,.5,3.3c.8,1,2.3,6,2.7,9.2a24.54,24.54,0,0,0,1.5,4,20.2,20.2,0,0,1,1.4,5,8,8,0,0,0,1.1,3.5,6.15,6.15,0,0,1,.7,3.3,4.79,4.79,0,0,0,.5,3,9.72,9.72,0,0,1,1.1,4.2c.1,1.6.6,3.1,1.2,3.3s.7.9.4,1.7a1.67,1.67,0,0,0,.5,2c.6.3,1.1,2.6,1.1,5s.4,4.6.9,4.9a3.94,3.94,0,0,1,.7,2.8,11.36,11.36,0,0,0,1,4.7,6.05,6.05,0,0,1,.8,3.6,1.67,1.67,0,0,0,.5,2c.6.3,1.1,1.9,1.1,3.4a6.8,6.8,0,0,0,.7,3.5c.4.4.8,2.4.9,4.4a22.17,22.17,0,0,0,1.1,6.2,6.64,6.64,0,0,1,.6,3.6,1.71,1.71,0,0,0,.6,1.9c.6.3,1.1,2.6,1.1,5.1s.3,4.4.8,4.4.8,2.5.8,5.5.5,6,1.1,6.7a9.6,9.6,0,0,1,.7,5c-.1,2.1.3,3.8,1,4.1s1.1,2.5,1,5.8c-.1,3,.2,5.9.8,6.6s1,4.1,1,7.5.4,6.8.9,7.4,1,4.4,1.2,8.5a46.14,46.14,0,0,0,1.1,9.1c.4.9.8,5.4.9,10s.6,8.8,1,9.5,1,6.7,1.2,13.5c.7,16.3,1.4,34.3,2,50.8.3,7.4.7,18.6,1,24.7s0,11.5-.4,11.8-.7,1.7-.5,3.2c.7,6.3.8,15.9.2,16.8-.3.6-.5,4.8-.3,9.3s-.1,8.4-.5,8.7-.6,2.9-.5,6-.1,5.8-.5,6-.5,2.7-.3,5.4a17.29,17.29,0,0,1-.4,6.6c-.5.9-.6,3.8-.3,6.5s.3,5.3-.2,5.8-1,4.7-1.2,9.5-.8,9.1-1.1,9.7a8.65,8.65,0,0,0-.4,3.7,63.31,63.31,0,0,1-1.1,9.3,53.31,53.31,0,0,0-.9,9,11.73,11.73,0,0,1-.4,4,32.57,32.57,0,0,0-1.7,10.2c0,1.5-.4,2.9-.9,3.2s-.7,1.9-.5,3.5,0,3.2-.5,3.5-.7,1.8-.5,3.3a8.12,8.12,0,0,1-.4,3.8,7.35,7.35,0,0,0-.7,3,6,6,0,0,1-.7,3,8.12,8.12,0,0,0-.4,3.8c.2,1.5,0,3-.5,3.3s-.7,1.8-.5,3.5-.1,3.2-.6,3.5a1.72,1.72,0,0,0-.4,2c.3.7.1,1.6-.3,1.8s-.8,1.6-.8,2.9a22.69,22.69,0,0,1-1.4,6.3,17,17,0,0,0-1,6.1c.1,1.1-.2,2.4-.7,2.7s-.8,1.9-.6,3.5-.1,3.3-.6,3.6a1.1,1.1,0,0,0-.4,1.6,2.65,2.65,0,0,1-.6,2.4,2.65,2.65,0,0,0-.6,2.4,1.11,1.11,0,0,1-.5,1.6,1.94,1.94,0,0,0-.5,2.1,1.5,1.5,0,0,1-.5,1.9,1.85,1.85,0,0,0-.7,1.8c.3,1.8-1.3,8-2.4,9.4a2.33,2.33,0,0,0-.4,2.2,1.1,1.1,0,0,1-.4,1.6c-.6.3-.8,1.8-.5,3.3a5.59,5.59,0,0,1-.6,3.8,2.33,2.33,0,0,0-.5,2.3,1.11,1.11,0,0,1-.5,1.6,1.94,1.94,0,0,0-.5,2.1,1.5,1.5,0,0,1-.5,1.9,2.17,2.17,0,0,0-.8,1.8,8.08,8.08,0,0,1-.5,3.2c-1.7,4.4-1.9,5-2.1,6a8.45,8.45,0,0,1-.5,1.7c-.1.5-.3,1.1-.4,1.5-.9,3.4-3.9,13.1-4.4,14.3a16.15,16.15,0,0,0-.7,2.5,5.38,5.38,0,0,1-.8,2.2,2,2,0,0,0-.2,2.2,1.23,1.23,0,0,1-.6,1.6,1.94,1.94,0,0,0-.5,2.1,1.67,1.67,0,0,1-.5,2,1.6,1.6,0,0,0-.5,2,1.61,1.61,0,0,1-.4,1.9,3,3,0,0,0-1,2.4,4.8,4.8,0,0,1-1.5,3.1,2.58,2.58,0,0,0-1.1,2.6,1.67,1.67,0,0,1-.5,2,1.6,1.6,0,0,0-.5,2,1.5,1.5,0,0,1-.5,1.9,2.17,2.17,0,0,0-.8,1.8,7.78,7.78,0,0,1-.4,2.9c-.4,1-1,2.6-1.4,3.5a7.59,7.59,0,0,0-.4,2.7c.1.5-.6,1.7-1.5,2.7s-1.4,2.2-1.1,2.6.2,1.2-.5,2-.8,1.6-.4,2-.1,1.5-1.1,2.5-1.3,1.8-.9,1.8.1,1.2-.7,2.7a84.07,84.07,0,0,0-4.3,9.8c-.7,1.9-.8,2.5-1.7,5.7-.2.7-1.4,3.5-2.7,6.3a57.25,57.25,0,0,0-2.6,6.3,29.49,29.49,0,0,1-2.3,5.2c-1.1,2.2-1.8,4-1.5,4s.1.7-.6,1.5-.9,1.8-.6,2.3-.1,1.5-.9,2.2a4.57,4.57,0,0,0-1.5,2.9,4.64,4.64,0,0,1-1.1,2.8,5.18,5.18,0,0,0-1.3,2.4,56.16,56.16,0,0,1-2.6,6.4c-1.3,2.7-2.4,5.2-2.5,5.5s-1.2,2.7-2.5,5.5a49.47,49.47,0,0,0-2.6,6.4,5.18,5.18,0,0,1-1.3,2.4,4.64,4.64,0,0,0-1.1,2.8,4.57,4.57,0,0,1-1.5,2.9c-.8.7-1.2,1.7-.9,2.2s-.2,1.8-1.1,2.8-1.4,2.3-1.1,2.8-.6,2-2,3.3-2.2,2.9-2,3.5a2.32,2.32,0,0,1-1,2.4,4.45,4.45,0,0,0-1.4,3,6.07,6.07,0,0,1-2,3.5c-1.2,1-1.9,2.4-1.6,3.1s-.4,2-1.5,3-1.8,2.3-1.5,3-.6,2.2-1.9,3.4-2.2,2.7-1.9,3.2-.2,1.8-1.2,2.9-1.4,2.2-1,2.6-.5,1.9-1.9,3.3-2.5,3.1-2.3,3.6-.8,2.3-2.1,4.1a12.52,12.52,0,0,0-2.3,4,15.24,15.24,0,0,1-2.2,3.8c-1.1,1.6-2,3.5-1.8,4.1s-.9,2.1-2.2,3.3-2.2,2.9-2,3.5-.4,2.1-1.6,3.1a6.07,6.07,0,0,0-2,3.5c0,.9-1.1,2.7-2.5,4s-2.5,3.1-2.5,4-1.1,2.7-2.5,4-2.5,3.1-2.5,4-1.6,3.5-3.6,5.9-3.4,4.5-3,4.8-.8,2.2-2.6,4-2.8,3.6-2.5,4-.7,2.2-2.5,4-2.9,3.6-2.5,3.9-1.4,3-3.8,5.9-4.2,5.5-3.8,5.9-1,2.4-3.1,4.5-3.6,4.3-3.3,4.8c.5.9-23.5,17.4-30.2,20.8l-3.5,1.8,1.9-2.9c28.8-43.6,56.6-93.1,64.4-114.9,8.9-24.8,7.8-39.7-4-54.3-2.8-3.5-4.8-6.6-4.5-6.9s6.5-2.1,13.8-3.9c15.6-3.9,24.2-7.2,31.5-12.1,14.4-9.5,27.9-32.6,31.2-53.3,1.6-9.6,1.3-31.4-.4-41.6-2.1-11.8-5.1-22.5-8.6-30.3l-2.9-6.3-5.5.4c-7.7.6-10.4,3-13.6,11.6-5.4,14.5-11.9,22-21.8,24.9-24.5,7.1-70.6-20.5-98.3-58.7-13.3-18.4-26.1-42.8-31.7-60.1-3.2-9.8-6.9-23.9-6.2-23.9.3,0,5,2.3,10.6,5,14.3,7.2,22.1,8.3,52,7.7,26.6-.5,32.2-1.6,49.1-9.6,15.4-7.3,24.6-14,38.4-28,17.4-17.5,28.3-34.5,35.8-56.1,5.2-15,6.7-23.8,6.6-41.5,0-17.3-1.9-30.6-6.9-48-10.8-37.3-48.6-77.1-84.2-88.5-26.7-8.6-51.5-4.9-75.8,11.3-3.3,2.2-10.8,8.9-16.7,15s-10.8,10.4-10.8,9.8c0-2.4-7.2-15.7-14.7-27.1-10.9-16.6-19-26.7-33.6-41.7l-12.8-13.3,4-5.7c2.1-3.2,10.8-15.4,19.3-27.2,17.7-24.4,24.3-34.7,35.4-55.1,20-37,39.7-88.9,52.9-139.5,7.6-29,9.8-42.7,9.9-61l.1-16.1-3.7-7.5c-6.4-12.9-20.6-25.6-34.7-31-24.2-9.3-55.8,10-61.3,37.4-2.7,13.7,5.1,31.8,17.1,39.8,3.9,2.5,5.3,2.9,11.5,2.9a60.92,60.92,0,0,0,10.9-.9c4.2-1,4.2-.9,2.2,4.8-3,8.5-15.6,24.5-25.5,32.4-10.1,8-36.4,25.4-44.5,29.4-17.1,8.6-44.2,17.5-81,26.7-34.8,8.7-49.8,11.7-65,13.1-8.2.8-19,2-23.8,2.6-12.3,1.7-45.1-.6-44.3-3,5.1-15,8.6-34.2,12.1-66.5,1.4-12.7,3.3-28.7,4.1-35.6,1.8-14.2,1.3-22.4-1.7-30.6-2-5.2-2.3-5.5-4.8-5-13.6,3.1-38.2,14.4-58,26.6-7.7,4.8-14,9.9-24,19.5l-13.5,13-1.3-3.2c-.7-1.7-3.3-11.4-5.7-21.5-10.8-44-26.7-79.6-46.2-103.6-2.4-2.9-4.9-7.1-5.5-9.3s-1.7-3.9-2.3-3.9c-2.3,0-6.9,3.9-10,8.6-4.3,6.5-32.8,67.1-35.4,75.4-6.4,20.1-17.2,61.5-19.3,74a74,74,0,0,1-1.5,7.8c-.1.2-7.2-4.4-15.7-10.1-15.3-10.3-22.8-14-31.7-15.7a27.3,27.3,0,0,0-4.5-.7c0,.1-3.7,7.8-8.2,17.2s-10.2,22.6-12.7,29.5-5.9,16.3-7.6,21-4.4,13.4-6,19.4l-2.8,10.8-4.3-3.8c-2.4-2.1-12.7-12-22.9-21.9-19.4-18.9-27.9-25.7-29.3-23.3-13.1,22.9-32.2,52.5-44.4,69-6.1,8.2-8.3,10.3-8.3,7.8,0-.6-2.9-9-6.5-18.6s-7.1-19.8-7.7-22.5c-1.1-4.9-1.2-4.9-5.1-4.9h-4l.7,15.7c.4,8.7.9,43.2,1.1,76.8s.9,70,1.6,81,1,25.6.7,32.5c-.4,11.4-.8,13.3-4.1,21.7-5,12.5-6.1,20.4-6.1,43.8,0,19.9,0,20.1,3.2,29.9,1.7,5.4,3.2,10,3.2,10.2s-.7.4-1.6.4-6.8,2.5-13.3,5.5-30,11.5-52.1,19c-43.6,14.7-63.9,22.5-82.4,31.6-24.6,12.2-39.3,22.5-53.2,37.3-17.9,18.9-25.8,37.9-25.7,62.1,0,10.1.4,13.4,2.7,21,5.5,18.4,17.8,38,29.4,46.8,6.4,4.8,9.9,5.8,15.3,4.5l4.1-1.1-.8-13.1c-1.5-23.8-.5-29.4,6.5-36.7,11.3-11.5,31.6-12.7,72.4-4.2,29.7,6.1,51,5.7,75-1.6,15.9-4.8,28.4-10,55.2-22.6,38-18,51.9-22.3,67.9-21.2,8.1.5,14.6,2.2,14.6,3.7,0,2-8.6,10.8-19.5,20.1-26.9,22.7-32.5,29.7-51.5,63.9-26.5,47.7-41.6,62.4-70.3,68-4.9,1-6.1,1.7-8.2,4.8-5.3,7.8-2.6,14.6,7.5,19.1,14.8,6.5,59,9.1,76.5,4.6,7.3-1.9,25.6-11.2,33-16.8,3.3-2.5,15.5-13.3,27-24.1s24.1-21.8,28-24.3,19.1-10.6,34-17.8c29.2-14.3,36.3-18.6,61.5-37.5,9.1-6.8,18.9-13.4,21.9-14.8,5-2.3,6.1-2.4,17-1.9,20.1.9,37,8.3,51.1,22.6,15.6,15.8,20.5,33.9,14,51.3-3.4,9.1-4.7,10.2-17.3,14.4-22.8,7.6-39.7,15.6-57.3,27.2-43.1,28.5-77,74.9-93.3,127.7-7.9,25.7-10.9,52.5-6.9,62.7.7,1.9,2.1,3.1,4.7,3.8,5.3,1.5,6.7,1.3,16-2,4.6-1.6,7.8-2.3,7-1.6s-9.9,9.1-20.4,18.6-21.2,20.1-23.9,23.4-8.3,9.7-12.5,14.1c-19.2,19.9-51.6,64.4-68.6,93.9-18.9,33-34.4,71-46.9,114.8-8.7,30.7-12.2,49.6-15.6,86.2-2.4,26.8-2.5,29-.3,32.8,1.7,2.9,2,3,7.6,2.6,5.1-.4,6.2-.9,10-4.5,2.3-2.2,6.7-5.9,9.7-8.3,6.8-5.3,6.7-5.5,5,13.7-1.5,15.8-.9,73,1,97.8,5.3,71.8,18.7,121.9,52.7,198,17.2,38.5,35.5,68.9,64.8,108,21.9,29.1,51.6,62.4,58.9,65.9,4.7,2.2,7.5,2,15.2-1.1l6.7-2.6-.7-7.4c-.7-8.9-2.2-15.1-8.2-33.8-15.7-49-28.5-124.8-30.4-180-2.5-71.6,3.9-149,17.6-211,17.5-79.3,52.6-166.1,97.2-240.5,12.6-21.1,15.4-25.3,39.7-58.4,18-24.5,27.3-36.2,28.1-35.3.3.2-3.9,9.8-9.2,21.3-21.5,46.9-32.2,75.1-42.4,112.1-19.8,72-26.5,156.7-18.4,231.8,3.6,33.5,11.8,76.5,20,105.2,1.9,6.7,7.1,21.9,11.5,33.9s9.5,27.2,11.4,33.8c4.6,16.7,5,17.6,9.3,17.6a21.94,21.94,0,0,0,7.8-2c4.8-2.4,7.6-6.2,17.9-24.5,9.1-16.3,35-54.3,36.2-53.2.2.3-.6,2.9-1.8,5.8s-2.2,5.8-2.3,6.4-1.1,3.5-2.2,6.5c-3.6,9.4-6.6,18.4-6.9,20.5a32.43,32.43,0,0,1-1.8,5.8,102.2,102.2,0,0,0-3.8,13c-1.2,5-3.7,14.1-5.5,20.2-10.1,33.7-19.5,80.3-22.8,112.5-.9,8.5-2.3,22.5-3.1,31-2.6,25.6-2.8,40.7-1.1,68.1.9,14,1.6,28.1,1.6,31.2,0,5.6,0,5.7,2.9,5.7,1.7,0,3.2-.4,3.5-.9s1.5-6.4,2.7-13.2,4.1-19.2,6.5-27.5q23.55-81.75,81.8-153.9c5.3-6.6,14.5-18,20.4-25.4,32.5-40.7,51.6-61.4,71.3-77.1,2.4-1.9,5.9-4.9,7.9-6.6,5.6-4.9,29.4-21.3,40.3-27.8,1.8-1,5-3.1,7.2-4.6,6.3-4.4,40.8-22.5,50-26.2,2.2-.9,7.8-3.3,12.5-5.3a241.3,241.3,0,0,1,26.2-10.1,93,93,0,0,0,10.5-3.9,12.66,12.66,0,0,1,4.4-1.5c.9,0,6-1.4,11.5-3,21.4-6.5,48.6-11.7,86.9-16.4,20.5-2.6,73.5-2.6,95.8-.2,8.2,1,15.6,1.6,16.5,1.5a9.33,9.33,0,0,1,2.5.1c.4.1,1,.3,1.5.4.8.2,12.1,1.9,13.7,2,1.9.2,12,2.8,18,4.6,11,3.3,18,5,21.5,5.4a26.9,26.9,0,0,1,6.5,1.6c2.9,1.1,13.8,3.4,24.1,5a43.92,43.92,0,0,1,7,1.4,62.92,62.92,0,0,0,7.2,1.1,123.23,123.23,0,0,1,14.7,3.1c5.2,1.4,9.9,2.3,10.4,1.9a1.23,1.23,0,0,1,1.6.6,1.94,1.94,0,0,0,2.1.5c.7-.3,3.8-.1,6.9.4,15.7,2.6,64.1,3.1,88.5,1.1,6.9-.6,15.4-1.3,19-1.6,7.8-.7,48-7.2,53-8.6,1.9-.5,6.9-1.6,11-2.5a105.64,105.64,0,0,0,13-3.4c3-1,9.6-2.9,14.5-4.3s10.4-3.1,12-3.8,3.5-1.3,4.2-1.5c2.9-.6,8.9-2.7,9.9-3.6.8-.5,1.2-.4,1.1.4-.2,6.1.5,8.2,3.9,11.4,2.3,2.2,4.5,3.4,6.4,3.4a17.82,17.82,0,0,1,5.3.9c1.4.6,5.4,1.2,8.9,1.5s6.3.5,6.3.6,3.3.5,12,1.4l10,1.1c16.5,2,75.1,2.7,97.5,1.1,21-1.5,44.2-3.8,52-5.1,4.7-.8,10.1-1.7,12-1.9,8.7-1.2,28.9-4.7,32.5-5.7,2.2-.5,5.4-1.2,7-1.5,9.1-1.6,29.9-6.6,42.5-10.4,4.1-1.2,9.1-2.5,11-3a59.28,59.28,0,0,0,8-2.5c2.5-.9,6.8-2.3,9.5-3,6.4-1.7,19-6.2,22.7-8.1a13.27,13.27,0,0,1,3.5-1.4c1.8,0,11.6-3.7,21.5-8.2,6-2.6,11.2-4.8,11.8-4.8a8.07,8.07,0,0,0,2.8-.9c.9-.5,6.2-3,11.7-5.6s10.8-5,11.8-5.5c3.2-1.8,5.2-2.8,13.7-6.9,10.6-5,28.5-14.6,31.9-17,1.4-1,4.9-3.1,7.6-4.6s10.6-6.5,17.5-11,14.2-9.2,16.3-10.4a52.22,52.22,0,0,0,5-3.5,16.69,16.69,0,0,1,3.2-2.4c3.8-2,35.5-26.5,40.5-31.3.8-.8,3.5-3,6-5s5.9-4.9,7.5-6.5,5.5-4.8,8.5-7.2c7.3-6,42.6-41.5,52-52.3,8.6-9.9,9.1-10.4,18.8-22.4,11-13.6,11.7-14.6,27.2-36.1,3-4.2,6-8.1,6.5-8.8,2-2.3,9.5-13.8,9.5-14.5a18.49,18.49,0,0,1,2.6-4.2,32.61,32.61,0,0,0,3.5-5.7,78.4,78.4,0,0,1,4.4-7.7c1.9-3.1,3.5-5.7,3.5-5.9s1.6-2.7,3.5-5.6,3.5-5.6,3.5-6.2,1.3-2.9,2.9-5.2a25.52,25.52,0,0,0,3.6-6.9,9.21,9.21,0,0,1,2.1-3.8,3.35,3.35,0,0,0,1.4-2c0-.8,14.5-31.4,17.2-36.3.5-1.1,1.9-4.4,2.9-7.4a33.75,33.75,0,0,1,2.8-6.6,29.19,29.19,0,0,0,2.1-5.1,26,26,0,0,1,2-5,27.48,27.48,0,0,0,2.1-5.5,30.91,30.91,0,0,1,2.6-6.5,9,9,0,0,0,1.3-4,5.67,5.67,0,0,1,.8-3c.5-.6,1.9-4.4,3.2-8.5s2.7-8.3,3.2-9.4a18.87,18.87,0,0,0,1.3-3.5,181,181,0,0,1,5.5-19.1c2.5-7.3,4.8-16.5,4.1-16.5-.1,0,.8-2.7,1.9-5.9a41.46,41.46,0,0,0,2-7.8,100.73,100.73,0,0,1,2-11.1c4.4-19.9,7.4-36.4,8.5-47.7.3-2.5.9-7.2,1.4-10.5,1-6.1,2.1-16,2.8-25,1.3-17.2,1.6-26.2,1.6-54,.1-27-.1-31.7-1.7-36.2-2-5.9-6-9.6-9.8-8.9a19.09,19.09,0,0,1-3.6.5c-.8.1-3.7,2.3-6.5,5-11.3,10.7-18.5,15.8-44.7,31.3-21.3,12.6-41,23.2-41,22,0-.4,3.9-6,8.8-12.4,19.2-25.8,43.9-65,52.6-83.5.6-1.3,1.4-2.3,1.9-2.3s.7-.7.7-1.5a16.16,16.16,0,0,1,2-5c1.1-1.9,1.7-3.5,1.4-3.5s.7-1.7,2.1-3.7,2.5-4.1,2.5-4.6a46.54,46.54,0,0,1,2.9-7c4.7-9.9,8.1-17.5,8.1-18.3a47.15,47.15,0,0,1,2.6-6.2c1.9-4.1,2.3-5.7,1.4-6.6-.6-.6-1-.7-.8-.1.5,1.7-3.2,9.6-4.2,9-.5-.3-.7,0-.4.8a1.88,1.88,0,0,1-.4,2.1c-.6.4-.9-.5-.7-2.1.3-2.7-2.8-9.1-8.5-17.8a63.15,63.15,0,0,1-3.8-6.8c-.6-1.5-1.6-2.7-2.2-2.7s-1-.6-1-1.4-2-4-4.5-7.2-4.5-6.4-4.5-7.1-.4-1.1-1-.8-1,0-1-.7-1.8-4-4-7.3-4-6.6-4-7.3a1.12,1.12,0,0,0-1-1.2c-.5,0-1-.7-1-1.5s-.4-1.5-1-1.5a1.13,1.13,0,0,1-1-1.2c0-.6-1.1-2.5-2.4-4.2a63.37,63.37,0,0,1-4.6-7.6,53.38,53.38,0,0,0-5.6-8.4c-1.9-2.2-3.4-4.6-3.4-5.3s-.4-1.3-1-1.3-1-.7-1-1.5-.4-1.5-1-1.5a1.23,1.23,0,0,1-1-1.3,6.44,6.44,0,0,0-1.9-3.5,45.48,45.48,0,0,1-4.2-6.9,28.06,28.06,0,0,0-3-5.3c-.3-.3-2.7-4-5.4-8.2a110.71,110.71,0,0,0-6.7-9.8,7.33,7.33,0,0,1-1.8-2.5,44.46,44.46,0,0,0-3.5-5.6,34.18,34.18,0,0,1-3.5-5.9c0-.4-1.8-3.5-4-6.8s-4-6.5-4-7.1a1,1,0,0,0-1-1.1c-.5,0-1-.7-1-1.5s-.4-1.5-1-1.5a1.23,1.23,0,0,1-1-1.3c0-.7-2.1-4.2-4.7-7.7a178.6,178.6,0,0,1-13.5-21.3c-1-2-2.3-3.7-2.8-3.7a1,1,0,0,1-1-1.1c0-.6-1.8-3.8-4-7.1s-4-6.5-4-7-2.5-4.1-5.5-8-5.5-7.6-5.5-8.4-.4-1.4-1-1.4-1-.7-1-1.5-.4-1.5-1-1.5a1,1,0,0,1-1-1c0-.5-1.8-3.8-3.9-7.2-7.7-12.3-8.9-14.3-10.2-17.1-.7-1.5-1.6-2.7-2.1-2.7s-.8-.6-.8-1.4a2,2,0,0,0-.9-1.8c-1.4-.5-10.1-13.8-10.1-15.4,0-.8-.4-1.2-1-.9s-1,0-1-.7-1.4-3.3-3-5.8a61.23,61.23,0,0,1-4.4-7.5c-.7-1.7-3.8-6.4-6.7-10.5-6.9-9.5-13.9-20.6-13.9-22a1,1,0,0,0-1-1c-.5,0-1-.7-1-1.5s-.4-1.5-1-1.5a1.23,1.23,0,0,1-1-1.3c0-.6-1.6-3.5-3.6-6.2a88.46,88.46,0,0,1-6-9.7,50.29,50.29,0,0,0-5.2-8,31.69,31.69,0,0,1-4-6.1c-.6-1.5-1.6-2.7-2.2-2.7a1.23,1.23,0,0,1-1-1.3c0-.7-1.2-2.9-2.6-4.8a52,52,0,0,1-4.3-6.9,118.33,118.33,0,0,0-6.4-10.6c-2.6-3.9-4.7-7.6-4.7-8.1s-1.2-2.1-2.7-3.6a30,30,0,0,1-5.3-7.4c-1.4-2.6-2.9-5.2-3.3-5.8-2.5-3.2-8.7-13.6-8.7-14.5a1,1,0,0,0-1-1c-.5,0-1-.7-1-1.5s-.4-1.5-.8-1.5-1.3-1.4-1.9-3.1c-1.1-2.9-1.4-3-3-1.8-1.1.9-1.4,1-.9.1.4-.7.2-1.2-.6-1.2-1,0-1-.2.1-.9.8-.5.9-1.1.3-1.5-1.3-.8-2.4,1.7-4.1,8.9-3.1,13.6-5.7,23.3-8.7,32.8a105,105,0,0,0-3.4,12.1c0,1.8-5.7,19.6-7,21.8a12,12,0,0,0-1,4.6,7.3,7.3,0,0,1-.9,3.8,7.85,7.85,0,0,0-1.5,2.9c-.3,1.1-.3-.3,0-3,2.6-28.9,3.2-77.3,1.4-104.7-5.1-74.5-21.5-144.8-50.3-215.3-20.9-51-42.5-90.2-75.1-136-16.8-23.5-20.8-28.2-25.2-29.4-6.5-1.8-13.4,2.8-15.2,10.2-.6,2.3-1.4,19.7-1.7,38.7s-.9,37.4-1.3,41l-.7,6.5-4.1-14c-22.5-75.9-29.8-95.1-55-145.5-15-29.8-38.6-69.1-51.1-85.2-1.5-1.9-3.5-4.6-4.3-5.8-9.6-14.5-36-45.8-56.4-67-5.5-5.8-11.4-12-12.9-13.9a105.72,105.72,0,0,0-9.5-9.4c-3.7-3.3-10.1-9-14.2-12.7s-9.1-8-11-9.6-3.7-3.1-4-3.4c-3.2-3.3-33.6-28.6-40.5-33.7-1.7-1.2-7.3-5.4-12.5-9.5-14.8-11.3-36.5-25.4-47.5-30.8C1646.41,74.39,1632.11,70.69,1627.51,72.59Zm549.2,759.2a1.22,1.22,0,0,1-.5,1.6c-.5.3-1-.1-1-.9C2175.21,830.69,2175.81,830.39,2176.71,831.79ZM654,923.09c2,2,1.4,12.9-1.3,22.4-8.3,29.5-26.3,49.1-51,55.8-8.3,2.3-38.2,3.3-45.3,1.6-6.2-1.4-9.7-5-8.7-8.9a6.9,6.9,0,0,1,2-3.5c7.8-6.3,47-35.4,57.5-42.7,19.9-13.8,39.9-25.9,43-25.9A6.15,6.15,0,0,1,654,923.09ZM2453.11,1272c-1.3,2.6-2.3,1.8-1.4-1,.3-1.2,1.1-1.9,1.6-1.6S2453.81,1270.79,2453.11,1272Z" transform="translate(-174.91 -72.09)"/><path class="cls-1" d="M2192,320.59a2,2,0,0,0,1.9-.1c.4-.3-.2-.6-1.3-.5S2191.21,320.29,2192,320.59Z" transform="translate(-174.91 -72.09)"/><path class="cls-1" d="M2206.21,327.29a5.73,5.73,0,0,0,1.8,1.7c1.5,1.3,1.6,1.2.3-.4S2206.21,326.49,2206.21,327.29Z" transform="translate(-174.91 -72.09)"/><path class="cls-1" d="M2215.21,334.39a13.29,13.29,0,0,0,2.8,2.5c.3,0-.5-1.1-1.8-2.5a13.29,13.29,0,0,0-2.8-2.5C2213.11,331.89,2213.91,333,2215.21,334.39Z" transform="translate(-174.91 -72.09)"/><path class="cls-1" d="M2221.21,340.19a29.46,29.46,0,0,0,3.3,3.3l3.2,2.9-2.9-3.3C2222,340.09,2221.21,339.39,2221.21,340.19Z" transform="translate(-174.91 -72.09)"/><path class="cls-1" d="M2190.31,350a12.78,12.78,0,0,0,.9,4.4c.7,1.4.8.8.3-2C2190.81,347.79,2190.21,346.49,2190.31,350Z" transform="translate(-174.91 -72.09)"/><path class="cls-1" d="M2233.21,353.29a5.73,5.73,0,0,0,1.8,1.7c1.5,1.3,1.6,1.2.3-.4S2233.21,352.49,2233.21,353.29Z" transform="translate(-174.91 -72.09)"/><path class="cls-1" d="M2243.71,364.89a7.65,7.65,0,0,0,2.3,2c.3,0-.3-.9-1.3-2a7.65,7.65,0,0,0-2.3-2C2242.11,362.89,2242.71,363.79,2243.71,364.89Z" transform="translate(-174.91 -72.09)"/><path class="cls-1" d="M2193.31,368.49c0,1.1.3,1.4.6.6a2,2,0,0,0-.1-1.9C2193.51,366.79,2193.21,367.39,2193.31,368.49Z" transform="translate(-174.91 -72.09)"/><path class="cls-1" d="M2247.21,369.29a5.73,5.73,0,0,0,1.8,1.7c1.5,1.3,1.6,1.2.3-.4S2247.21,368.49,2247.21,369.29Z" transform="translate(-174.91 -72.09)"/><path class="cls-1" d="M2257.21,381.29a5.73,5.73,0,0,0,1.8,1.7c1.5,1.3,1.6,1.2.3-.4S2257.21,380.49,2257.21,381.29Z" transform="translate(-174.91 -72.09)"/><path class="cls-1" d="M2196.41,387.89c0,1.4.2,1.9.5,1.2a5.28,5.28,0,0,0,0-2.5C2196.61,386,2196.41,386.49,2196.41,387.89Z" transform="translate(-174.91 -72.09)"/><path class="cls-1" d="M2198.31,402.49c0,1.1.3,1.4.6.6a2,2,0,0,0-.1-1.9C2198.51,400.79,2198.21,401.39,2198.31,402.49Z" transform="translate(-174.91 -72.09)"/><path class="cls-1" d="M2275.21,404.29a5.73,5.73,0,0,0,1.8,1.7c1.5,1.3,1.6,1.2.3-.4S2275.21,403.49,2275.21,404.29Z" transform="translate(-174.91 -72.09)"/><path class="cls-1" d="M2278.21,408.29a5.73,5.73,0,0,0,1.8,1.7c1.5,1.3,1.6,1.2.3-.4S2278.21,407.49,2278.21,408.29Z" transform="translate(-174.91 -72.09)"/><path class="cls-1" d="M2199.41,412.89c0,1.9.2,2.7.5,1.7a10.28,10.28,0,0,0,0-3.5C2199.61,410.19,2199.41,411,2199.41,412.89Z" transform="translate(-174.91 -72.09)"/><path class="cls-1" d="M2283.21,415.29a5.73,5.73,0,0,0,1.8,1.7c1.5,1.3,1.6,1.2.3-.4S2283.21,414.49,2283.21,415.29Z" transform="translate(-174.91 -72.09)"/><path class="cls-1" d="M2289.81,424.19c.3,1,.9,1.5,1.2,1.2s0-1.1-.7-1.8C2289.31,422.69,2289.21,422.79,2289.81,424.19Z" transform="translate(-174.91 -72.09)"/><path class="cls-1" d="M2293.21,428.89c.6,1.1,1.3,2,1.6,2s0-.9-.6-2-1.3-2-1.6-2S2292.61,427.79,2293.21,428.89Z" transform="translate(-174.91 -72.09)"/><path class="cls-1" d="M2201.41,430.89c0,1.4.2,1.9.5,1.2a5.28,5.28,0,0,0,0-2.5C2201.61,429,2201.41,429.49,2201.41,430.89Z" transform="translate(-174.91 -72.09)"/><path class="cls-1" d="M2305.21,447.89c.6,1.1,1.3,2,1.6,2s0-.9-.6-2-1.3-2-1.6-2S2304.61,446.79,2305.21,447.89Z" transform="translate(-174.91 -72.09)"/><path class="cls-1" d="M2203.41,452.89c0,1.4.2,1.9.5,1.2a5.28,5.28,0,0,0,0-2.5C2203.61,451,2203.41,451.49,2203.41,452.89Z" transform="translate(-174.91 -72.09)"/><path class="cls-1" d="M2308.21,452.89c.6,1.1,1.3,2,1.6,2s0-.9-.6-2-1.3-2-1.6-2S2307.61,451.79,2308.21,452.89Z" transform="translate(-174.91 -72.09)"/><path class="cls-1" d="M2314.21,461.89c.6,1.1,1.3,2,1.6,2s0-.9-.6-2-1.3-2-1.6-2S2313.61,460.79,2314.21,461.89Z" transform="translate(-174.91 -72.09)"/><path class="cls-1" d="M2204.41,462.89c0,1.4.2,1.9.5,1.2a5.28,5.28,0,0,0,0-2.5C2204.61,461,2204.41,461.49,2204.41,462.89Z" transform="translate(-174.91 -72.09)"/><path class="cls-1" d="M2318.21,468.89c.6,1.1,1.3,2,1.6,2s0-.9-.6-2-1.3-2-1.6-2S2317.61,467.79,2318.21,468.89Z" transform="translate(-174.91 -72.09)"/><path class="cls-1" d="M2205.51,478.39c0,2.2.2,3,.4,1.7a13.39,13.39,0,0,0,0-4C2205.61,475.19,2205.41,476.19,2205.51,478.39Z" transform="translate(-174.91 -72.09)"/><path class="cls-1" d="M2334.81,499.19c.3,1,.9,1.5,1.2,1.2s0-1.1-.7-1.8C2334.31,497.69,2334.21,497.79,2334.81,499.19Z" transform="translate(-174.91 -72.09)"/><path class="cls-1" d="M2207.41,515.89c0,1.4.2,1.9.5,1.2a5.28,5.28,0,0,0,0-2.5C2207.61,514,2207.41,514.49,2207.41,515.89Z" transform="translate(-174.91 -72.09)"/><path class="cls-1" d="M2345.21,521.79a1.9,1.9,0,0,0,1,1.6c.6.3.7-.1.4-.9C2345.91,520.69,2345.21,520.39,2345.21,521.79Z" transform="translate(-174.91 -72.09)"/><path class="cls-1" d="M2207.51,528.39c0,2.2.2,3,.4,1.7a13.39,13.39,0,0,0,0-4C2207.61,525.19,2207.41,526.19,2207.51,528.39Z" transform="translate(-174.91 -72.09)"/><path class="cls-1" d="M2350.31,531.39a11.09,11.09,0,0,0,1.4,3.5c.8,1.4,1.4,2,1.4,1.5a10.26,10.26,0,0,0-1.4-3.5C2350.91,531.49,2350.31,530.79,2350.31,531.39Z" transform="translate(-174.91 -72.09)"/><path class="cls-1" d="M2207.41,535.89c0,1.4.2,1.9.5,1.2a5.28,5.28,0,0,0,0-2.5C2207.61,534,2207.41,534.49,2207.41,535.89Z" transform="translate(-174.91 -72.09)"/><path class="cls-1" d="M2207.41,542.39c0,1.6.2,2.2.5,1.2a7.56,7.56,0,0,0,0-3C2207.61,540,2207.41,540.69,2207.41,542.39Z" transform="translate(-174.91 -72.09)"/><path class="cls-1" d="M2207.31,547.49c0,1.1.3,1.4.6.6a2,2,0,0,0-.1-1.9C2207.51,545.79,2207.21,546.39,2207.31,547.49Z" transform="translate(-174.91 -72.09)"/><path class="cls-1" d="M2207.51,561.39c0,2.7.2,3.8.4,2.2a20.89,20.89,0,0,0,0-5C2207.71,557.39,2207.51,558.59,2207.51,561.39Z" transform="translate(-174.91 -72.09)"/><path class="cls-1" d="M2207.41,570.89c0,1.4.2,1.9.5,1.2a5.28,5.28,0,0,0,0-2.5C2207.61,569,2207.41,569.49,2207.41,570.89Z" transform="translate(-174.91 -72.09)"/><path class="cls-1" d="M2207.41,578.39c0,1.6.2,2.2.5,1.2a7.56,7.56,0,0,0,0-3C2207.61,576,2207.41,576.69,2207.41,578.39Z" transform="translate(-174.91 -72.09)"/><path class="cls-1" d="M2207.51,586.39c0,2.2.2,3,.4,1.7a13.39,13.39,0,0,0,0-4C2207.61,583.19,2207.41,584.19,2207.51,586.39Z" transform="translate(-174.91 -72.09)"/><path class="cls-1" d="M2372.21,586.79a1.9,1.9,0,0,0,1,1.6c.6.3.7-.1.4-.9C2372.91,585.69,2372.21,585.39,2372.21,586.79Z" transform="translate(-174.91 -72.09)"/><path class="cls-1" d="M2374.31,592.49c0,1.1.3,1.4.6.6a2,2,0,0,0-.1-1.9C2374.51,590.79,2374.21,591.39,2374.31,592.49Z" transform="translate(-174.91 -72.09)"/><path class="cls-1" d="M2206.31,598.49c0,1.1.3,1.4.6.6a2,2,0,0,0-.1-1.9C2206.51,596.79,2206.21,597.39,2206.31,598.49Z" transform="translate(-174.91 -72.09)"/><path class="cls-1" d="M2206.41,607.89c0,1.4.2,1.9.5,1.2a5.28,5.28,0,0,0,0-2.5C2206.61,606,2206.41,606.49,2206.41,607.89Z" transform="translate(-174.91 -72.09)"/><path class="cls-1" d="M2205.41,625.39c0,1.6.2,2.2.5,1.2a7.56,7.56,0,0,0,0-3C2205.61,623,2205.41,623.69,2205.41,625.39Z" transform="translate(-174.91 -72.09)"/><path class="cls-1" d="M2204.41,639.89c0,1.9.2,2.7.5,1.7a10.28,10.28,0,0,0,0-3.5C2204.61,637.19,2204.41,638,2204.41,639.89Z" transform="translate(-174.91 -72.09)"/><path class="cls-1" d="M2203.41,649.39c0,1.6.2,2.2.5,1.2a7.56,7.56,0,0,0,0-3C2203.61,647,2203.41,647.69,2203.41,649.39Z" transform="translate(-174.91 -72.09)"/><path class="cls-1" d="M2203.41,655.39c0,1.6.2,2.2.5,1.2a7.56,7.56,0,0,0,0-3C2203.61,653,2203.41,653.69,2203.41,655.39Z" transform="translate(-174.91 -72.09)"/><path class="cls-1" d="M2202.41,662.89c0,1.4.2,1.9.5,1.2a5.28,5.28,0,0,0,0-2.5C2202.61,661,2202.41,661.49,2202.41,662.89Z" transform="translate(-174.91 -72.09)"/><path class="cls-1" d="M2201.11,674.09c-.3,2.2-.1,3.4.4,2.9s.7-2.1.5-3.7C2201.71,670.59,2201.61,670.69,2201.11,674.09Z" transform="translate(-174.91 -72.09)"/><path class="cls-1" d="M2200.41,683.39c0,1.6.2,2.2.5,1.2a7.56,7.56,0,0,0,0-3C2200.61,681,2200.41,681.69,2200.41,683.39Z" transform="translate(-174.91 -72.09)"/><path class="cls-1" d="M2398.31,686.49c0,1.1.3,1.4.6.6a2,2,0,0,0-.1-1.9C2398.51,684.79,2398.21,685.39,2398.31,686.49Z" transform="translate(-174.91 -72.09)"/><path class="cls-1" d="M2198.91,692.39a50.36,50.36,0,0,0-.6,7.5c.1,2.2.5,1.1,1-3C2200.31,689.69,2199.91,686.09,2198.91,692.39Z" transform="translate(-174.91 -72.09)"/><path class="cls-1" d="M2401.31,704.49c0,1.1.3,1.4.6.6a2,2,0,0,0-.1-1.9C2401.51,702.79,2401.21,703.39,2401.31,704.49Z" transform="translate(-174.91 -72.09)"/><path class="cls-1" d="M2197.41,707.89c0,1.9.2,2.7.5,1.7a10.28,10.28,0,0,0,0-3.5C2197.61,705.19,2197.41,706,2197.41,707.89Z" transform="translate(-174.91 -72.09)"/><path class="cls-1" d="M2196.51,715.39c0,2.2.2,3,.4,1.7a13.39,13.39,0,0,0,0-4C2196.61,712.19,2196.41,713.19,2196.51,715.39Z" transform="translate(-174.91 -72.09)"/><path class="cls-1" d="M2194.91,724.09c-.3,1.8,0,3.7.6,4.3s.8.6.4-.1-.2-2.5.3-4.3.5-3.1,0-3.1S2195.21,722.39,2194.91,724.09Z" transform="translate(-174.91 -72.09)"/><path class="cls-1" d="M2404.51,727.39c0,2.2.2,3,.4,1.7a13.39,13.39,0,0,0,0-4C2404.61,724.19,2404.41,725.19,2404.51,727.39Z" transform="translate(-174.91 -72.09)"/><path class="cls-1" d="M2194.31,731.49c0,1.1.3,1.4.6.6a2,2,0,0,0-.1-1.9C2194.51,729.79,2194.21,730.39,2194.31,731.49Z" transform="translate(-174.91 -72.09)"/><path class="cls-1" d="M2193.41,736.39c0,1.6.2,2.2.5,1.2a7.56,7.56,0,0,0,0-3C2193.61,734,2193.41,734.69,2193.41,736.39Z" transform="translate(-174.91 -72.09)"/><path class="cls-1" d="M2192.31,741.49c0,1.1.3,1.4.6.6a2,2,0,0,0-.1-1.9C2192.51,739.79,2192.21,740.39,2192.31,741.49Z" transform="translate(-174.91 -72.09)"/><path class="cls-1" d="M2440.61,744.49c-1.9,1.5-1.9,1.5.1.6,1.1-.5,2.7-1.2,3.5-1.5,1.3-.5,1.3-.6-.1-.6A6.08,6.08,0,0,0,2440.61,744.49Z" transform="translate(-174.91 -72.09)"/><path class="cls-1" d="M2192.31,745.49c0,1.1.3,1.4.6.6a2,2,0,0,0-.1-1.9C2192.51,743.79,2192.21,744.39,2192.31,745.49Z" transform="translate(-174.91 -72.09)"/><path class="cls-1" d="M2406.41,747.89c0,1.9.2,2.7.5,1.7a10.28,10.28,0,0,0,0-3.5C2406.61,745.19,2406.41,746,2406.41,747.89Z" transform="translate(-174.91 -72.09)"/><path class="cls-1" d="M2190.21,754.59c-.7,3.8-1,7.7-.7,8.8q.45,2,.6-1.2a51.62,51.62,0,0,1,1.2-8.3c.6-2.8.9-5.4.6-5.6S2190.91,750.79,2190.21,754.59Z" transform="translate(-174.91 -72.09)"/><path class="cls-1" d="M2458.91,759c.4,1.3.8,1.8,1.1,1a2.72,2.72,0,0,0-.6-2.3C2458.61,756.89,2458.51,757.29,2458.91,759Z" transform="translate(-174.91 -72.09)"/><path class="cls-1" d="M2407.41,762.39c0,1.6.2,2.2.5,1.2a7.56,7.56,0,0,0,0-3C2407.61,760,2407.41,760.69,2407.41,762.39Z" transform="translate(-174.91 -72.09)"/><path class="cls-1" d="M2187.81,768.49a6.18,6.18,0,0,0-.3,3.1c.3.2.8-.8,1.1-2.3a6.18,6.18,0,0,0,.3-3.1C2188.61,766,2188.11,767,2187.81,768.49Z" transform="translate(-174.91 -72.09)"/><path class="cls-1" d="M2463.21,769.79a1.9,1.9,0,0,0,1,1.6c.6.3.7-.1.4-.9C2463.91,768.69,2463.21,768.39,2463.21,769.79Z" transform="translate(-174.91 -72.09)"/><path class="cls-1" d="M2186.41,775.89a28.44,28.44,0,0,1-1,6.3c-1.3,4.2-2.5,11.4-1.8,10.7.4-.5,4.6-18,4.6-19.5,0-.3-.4-.5-.8-.5S2186.51,774.29,2186.41,775.89Z" transform="translate(-174.91 -72.09)"/><path class="cls-1" d="M2408.51,781.39c0,2.2.2,3,.4,1.7a13.39,13.39,0,0,0,0-4C2408.61,778.19,2408.41,779.19,2408.51,781.39Z" transform="translate(-174.91 -72.09)"/><path class="cls-1" d="M2422.31,791.49c0,1.1.3,1.4.6.6a2,2,0,0,0-.1-1.9C2422.51,789.79,2422.21,790.39,2422.31,791.49Z" transform="translate(-174.91 -72.09)"/><path class="cls-1" d="M2182.81,795.39c-.9,2.6-.7,3.2.5,1.2.6-1,.9-2.1.6-2.3S2183.21,794.49,2182.81,795.39Z" transform="translate(-174.91 -72.09)"/><path class="cls-1" d="M2181.21,801.19a60.22,60.22,0,0,1-2,9.6c-1.2,4.1-1.9,8.1-1.7,9s1.1-1.8,2.1-5.9c2.9-11.7,3.4-15,2.5-15C2181.61,798.89,2181.21,799.89,2181.21,801.19Z" transform="translate(-174.91 -72.09)"/><path class="cls-1" d="M2418.31,802.49c0,1.1.3,1.4.6.6a2,2,0,0,0-.1-1.9C2418.51,800.79,2418.21,801.39,2418.31,802.49Z" transform="translate(-174.91 -72.09)"/><path class="cls-1" d="M2408.31,814.49c0,1.1.3,1.4.6.6a2,2,0,0,0-.1-1.9C2408.51,812.79,2408.21,813.39,2408.31,814.49Z" transform="translate(-174.91 -72.09)"/><path class="cls-1" d="M2414.31,816.49c0,1.1.3,1.4.6.6a2,2,0,0,0-.1-1.9C2414.51,814.79,2414.21,815.39,2414.31,816.49Z" transform="translate(-174.91 -72.09)"/><path class="cls-1" d="M2412.81,820.39c-.9,2.6-.7,3.2.5,1.2.6-1,.9-2.1.6-2.3S2413.21,819.49,2412.81,820.39Z" transform="translate(-174.91 -72.09)"/><path class="cls-1" d="M2408.51,824.39c0,2.2.2,3,.4,1.7a13.39,13.39,0,0,0,0-4C2408.61,821.19,2408.41,822.19,2408.51,824.39Z" transform="translate(-174.91 -72.09)"/><path class="cls-1" d="M2176.21,823.39c0,.8.5,1.5,1,1.5s1-.7,1-1.5-.4-1.5-1-1.5S2176.21,822.59,2176.21,823.39Z" transform="translate(-174.91 -72.09)"/><path class="cls-1" d="M2487.41,842.89c0,1.4.2,1.9.5,1.2a5.28,5.28,0,0,0,0-2.5C2487.61,841,2487.41,841.49,2487.41,842.89Z" transform="translate(-174.91 -72.09)"/><path class="cls-1" d="M2489.31,851a12.78,12.78,0,0,0,.9,4.4c.7,1.4.8.8.3-2C2489.81,848.79,2489.21,847.49,2489.31,851Z" transform="translate(-174.91 -72.09)"/><path class="cls-1" d="M2492.31,863.49c0,1.1.3,1.4.6.6a2,2,0,0,0-.1-1.9C2492.51,861.79,2492.21,862.39,2492.31,863.49Z" transform="translate(-174.91 -72.09)"/><path class="cls-1" d="M2497.31,888.49c0,1.1.3,1.4.6.6a2,2,0,0,0-.1-1.9C2497.51,886.79,2497.21,887.39,2497.31,888.49Z" transform="translate(-174.91 -72.09)"/><path class="cls-1" d="M2498.41,894.39c0,1.6.2,2.2.5,1.2a7.56,7.56,0,0,0,0-3C2498.61,892,2498.41,892.69,2498.41,894.39Z" transform="translate(-174.91 -72.09)"/><path class="cls-1" d="M2500.31,904.49c0,1.1.3,1.4.6.6a2,2,0,0,0-.1-1.9C2500.51,902.79,2500.21,903.39,2500.31,904.49Z" transform="translate(-174.91 -72.09)"/><path class="cls-1" d="M2502.41,918.89c0,1.4.2,1.9.5,1.2a5.28,5.28,0,0,0,0-2.5C2502.61,917,2502.41,917.49,2502.41,918.89Z" transform="translate(-174.91 -72.09)"/><path class="cls-1" d="M2504.31,933.49c0,1.1.3,1.4.6.6a2,2,0,0,0-.1-1.9C2504.51,931.79,2504.21,932.39,2504.31,933.49Z" transform="translate(-174.91 -72.09)"/><path class="cls-1" d="M2507.41,964.89c0,1.9.2,2.7.5,1.7a10.28,10.28,0,0,0,0-3.5C2507.61,962.19,2507.41,963,2507.41,964.89Z" transform="translate(-174.91 -72.09)"/><path class="cls-1" d="M2508.41,984.89c0,1.9.2,2.7.5,1.7a10.28,10.28,0,0,0,0-3.5C2508.61,982.19,2508.41,983,2508.41,984.89Z" transform="translate(-174.91 -72.09)"/><path class="cls-1" d="M2508.31,998.49c0,1.1.3,1.4.6.6a2,2,0,0,0-.1-1.9C2508.51,996.79,2508.21,997.39,2508.31,998.49Z" transform="translate(-174.91 -72.09)"/><path class="cls-1" d="M2508.51,1037.89c0,2.5.2,3.5.4,2.2a17,17,0,0,0,0-4.5C2508.71,1034.39,2508.51,1035.39,2508.51,1037.89Z" transform="translate(-174.91 -72.09)"/><path class="cls-1" d="M2507.51,1055.39c0,2.2.2,3,.4,1.7a13.39,13.39,0,0,0,0-4C2507.61,1052.19,2507.41,1053.19,2507.51,1055.39Z" transform="translate(-174.91 -72.09)"/><path class="cls-1" d="M2506.41,1068.89c0,1.4.2,1.9.5,1.2a5.28,5.28,0,0,0,0-2.5C2506.61,1067,2506.41,1067.49,2506.41,1068.89Z" transform="translate(-174.91 -72.09)"/><path class="cls-1" d="M2505.41,1077.89c0,1.4.2,1.9.5,1.2a5.28,5.28,0,0,0,0-2.5C2505.61,1076,2505.41,1076.49,2505.41,1077.89Z" transform="translate(-174.91 -72.09)"/><path class="cls-1" d="M2504.41,1088.39c0,1.6.2,2.2.5,1.2a7.56,7.56,0,0,0,0-3C2504.61,1086,2504.41,1086.69,2504.41,1088.39Z" transform="translate(-174.91 -72.09)"/><path class="cls-1" d="M2503.41,1094.89c0,1.4.2,1.9.5,1.2a5.28,5.28,0,0,0,0-2.5C2503.61,1093,2503.41,1093.49,2503.41,1094.89Z" transform="translate(-174.91 -72.09)"/><path class="cls-1" d="M2502.41,1101.89c0,1.9.2,2.7.5,1.7a10.28,10.28,0,0,0,0-3.5C2502.61,1099.19,2502.41,1100,2502.41,1101.89Z" transform="translate(-174.91 -72.09)"/><path class="cls-1" d="M2499.31,1121.49c0,1.1.3,1.4.6.6a2,2,0,0,0-.1-1.9C2499.51,1119.79,2499.21,1120.39,2499.31,1121.49Z" transform="translate(-174.91 -72.09)"/><path class="cls-1" d="M2497.41,1131.89c0,1.4.2,1.9.5,1.2a5.28,5.28,0,0,0,0-2.5C2497.61,1130,2497.41,1130.49,2497.41,1131.89Z" transform="translate(-174.91 -72.09)"/><path class="cls-1" d="M2496.41,1137.39c0,1.6.2,2.2.5,1.2a7.56,7.56,0,0,0,0-3C2496.61,1135,2496.41,1135.69,2496.41,1137.39Z" transform="translate(-174.91 -72.09)"/><path class="cls-1" d="M2495.31,1142.49c0,1.1.3,1.4.6.6a2,2,0,0,0-.1-1.9C2495.51,1140.79,2495.21,1141.39,2495.31,1142.49Z" transform="translate(-174.91 -72.09)"/><path class="cls-1" d="M2494.41,1146.89c0,1.4.2,1.9.5,1.2a5.28,5.28,0,0,0,0-2.5C2494.61,1145,2494.41,1145.49,2494.41,1146.89Z" transform="translate(-174.91 -72.09)"/><path class="cls-1" d="M2492.41,1155.89c0,1.4.2,1.9.5,1.2a5.28,5.28,0,0,0,0-2.5C2492.61,1154,2492.41,1154.49,2492.41,1155.89Z" transform="translate(-174.91 -72.09)"/><path class="cls-1" d="M2491.41,1160.89c0,1.4.2,1.9.5,1.2a5.28,5.28,0,0,0,0-2.5C2491.61,1159,2491.41,1159.49,2491.41,1160.89Z" transform="translate(-174.91 -72.09)"/><path class="cls-1" d="M2487.41,1174c-.5,1.9-.6,3.8-.3,4.4s.9-.8,1.2-3C2489.21,1170.39,2488.61,1169.59,2487.41,1174Z" transform="translate(-174.91 -72.09)"/><path class="cls-1" d="M2484.81,1184.59c-.6,1.4-.5,1.5.5.6.7-.7,1-1.5.7-1.8S2485.11,1183.59,2484.81,1184.59Z" transform="translate(-174.91 -72.09)"/><path class="cls-1" d="M2483.31,1190.59a30.13,30.13,0,0,1-.7,3c-.5,1.7-.5,1.7.6,0a3.9,3.9,0,0,0,.6-3C2483.51,1189.69,2483.31,1189.69,2483.31,1190.59Z" transform="translate(-174.91 -72.09)"/><path class="cls-1" d="M2480.41,1199.59c-1.4,3.5-2.3,9.5-1.3,8.9.4-.3.8-1.9.9-3.6a14.66,14.66,0,0,1,1.3-5.2c.6-1.1.9-2.2.6-2.4S2481,1198.09,2480.41,1199.59Z" transform="translate(-174.91 -72.09)"/><path class="cls-1" d="M2474.71,1217.09c-.4,1.3-.8,2.8-1,3.4s-.6,2.2-1,3.5c-.5,1.5-.4,2,.2,1.4,1.3-1.4,3.8-9.4,3.1-10C2475.71,1215.09,2475.11,1215.89,2474.71,1217.09Z" transform="translate(-174.91 -72.09)"/><path class="cls-1" d="M2470.71,1229.09c-.4,1.3-1.6,4.2-2.7,6.6s-1.7,4.9-1.5,5.5.8.3,1.2-.8,1.1-2.9,1.5-4c1.6-3.9,3-8.8,2.6-9.2C2471.61,1226.89,2471.11,1227.79,2470.71,1229.09Z" transform="translate(-174.91 -72.09)"/><path class="cls-1" d="M2465,1244a17,17,0,0,0-.7,2.1,42,42,0,0,1-1.7,4.3c-.8,1.9-1.2,3.5-.9,3.5.9,0,4.6-9.2,4.2-10.4C2465.71,1243,2465.31,1243.19,2465,1244Z" transform="translate(-174.91 -72.09)"/></svg>