<svg id="Layer_1" data-name="Layer 1" xmlns="http://www.w3.org/2000/svg" xmlns:xlink="http://www.w3.org/1999/xlink" viewBox="0 0 1018.59 1018.59"><defs><style>.cls-1{fill:none;}.cls-2{clip-path:url(#clip-path);}.cls-3{fill:url(#linear-gradient);}.cls-4{clip-path:url(#clip-path-2);}.cls-5{fill:#df1371;}.cls-6{clip-path:url(#clip-path-3);}.cls-7{fill:#fff;}.cls-8{fill:#6360ab;}.cls-9{fill:#2b3892;}.cls-10{fill:#182a52;}.cls-11{fill:#fdc588;}</style><clipPath id="clip-path" transform="translate(-211.2 -170.58)"><path class="cls-1" d="M720.5,170.58c281.13.34,509,228.16,509.29,509.29h0c-.34,281.14-228.16,509-509.29,509.3h0c-41.94,0-125.78-15.65-125.78-15.65s-31.68-8.84-48.36-14.9h0a16.39,16.39,0,0,1-9.85-21v0h0a16.4,16.4,0,0,1,21-9.84h0a475.2,475.2,0,0,0,163,28.61h0c263-.3,476.2-213.46,476.5-476.51h0c-.3-263-213.46-476.2-476.5-476.5h0c-263,.3-476.21,213.46-476.51,476.5h0a476.71,476.71,0,0,0,207.76,393.55h0a16.4,16.4,0,0,1,4.27,22.79h0a16.39,16.39,0,0,1-22.79,4.27h0a509.52,509.52,0,0,1-222-420.61h0C211.54,398.74,439.36,170.92,720.5,170.58Z"/></clipPath><linearGradient id="linear-gradient" x1="8.05" y1="1415.45" x2="-0.15" y2="1423.65" gradientTransform="matrix(0, 124.25, 124.25, 0, -175658.59, 189.09)" gradientUnits="userSpaceOnUse"><stop offset="0" stop-color="#df1371"/><stop offset="1" stop-color="#6360ab"/></linearGradient><clipPath id="clip-path-2" transform="translate(-211.2 -170.58)"><rect class="cls-1" x="211.2" y="170.58" width="1018.59" height="1018.59"/></clipPath><clipPath id="clip-path-3" transform="translate(-211.2 -170.58)"><path class="cls-1" d="M1162.16,679.87c0,243.92-197.73,441.66-441.65,441.66h0c-243.92,0-441.66-197.72-441.67-441.64v0h0c0-243.92,197.74-441.66,441.67-441.66h0c243.92,0,441.66,197.74,441.66,441.66"/></clipPath></defs><title>profile</title><g class="cls-2"><g id="Group_5" data-name="Group 5"><g id="Group_4" data-name="Group 4"><path id="Path_7" data-name="Path 7" class="cls-3" d="M1229.79,170.58H211.2V1189.17H1229.79Z" transform="translate(-211.2 -170.58)"/></g></g></g><g class="cls-4"><g id="Group_7-2" data-name="Group 7-2"><g id="Group_6" data-name="Group 6"><path id="Path_9" data-name="Path 9" class="cls-5" d="M480.34,1110.66a16.39,16.39,0,0,1,22.13-6.91h0l.51.27.82.39a16.4,16.4,0,0,1-13.94,29.68,14.35,14.35,0,0,1-1.38-.64,5.12,5.12,0,0,1-.57-.3l-.65-.35a16.4,16.4,0,0,1-6.92-22.13h0" transform="translate(-211.2 -170.58)"/></g></g></g><g class="cls-6"><g id="Group_16" data-name="Group 16"><g id="Group_8" data-name="Group 8"><path id="Path_11" data-name="Path 11" class="cls-7" d="M1162.16,679.87c0-243.92-197.74-441.66-441.66-441.66S278.83,436,278.83,679.87s197.73,441.66,441.65,441.66h0c243.92,0,441.66-197.73,441.66-441.66" transform="translate(-211.2 -170.58)"/></g><g id="Group_9" data-name="Group 9"><path id="Path_12" data-name="Path 12" class="cls-8" d="M722.54,706.66s-3.58-27.32-15.19-36.2a54.57,54.57,0,0,1-44.85-18.1A224.5,224.5,0,0,1,619.25,523c0-39.57,16.7-63.2,47.73-85.48,23.6-17,72.36-36.93,110.61-36.93s66.93,8.85,86.08,45.09,29.36,78.55,73.09,78.55,50.54-19.82,77.19-19.82S1063.13,527,1076.79,553s27.67,54,64.56,54,72.07-1.36,72.07-1.36V893.86s-67-25.28-116.85-25.28-124.33,12.3-166,66.26-72.07-53.28-72.07-53.28Z" transform="translate(-211.2 -170.58)"/></g><g id="Group_10" data-name="Group 10"><path id="Path_13" data-name="Path 13" class="cls-9" d="M563.54,1024.59l-30.57-33,17.66-95.92,86-143.21s36-52.6,117.94-52.6,158.7-13,198.33,110S1022,1038,1022,1038L843.12,1138.43l-57.52-21.67-65.1-45.28-57.72,46.31-40.35,25.41L589,1119.29l8.54-102.47Z" transform="translate(-211.2 -170.58)"/></g><g id="Group_11" data-name="Group 11"><path id="Path_14" data-name="Path 14" class="cls-10" d="M652.63,795.75l9.84,47.55c1.83,7.38-3.68,9.78-9.84,10.57l-45.24,6.9c-6.79,1.06-8.84-1.9-10.24-8.77l-5.81-28.23Z" transform="translate(-211.2 -170.58)"/></g><g id="Group_12" data-name="Group 12"><path id="Path_15" data-name="Path 15" class="cls-7" d="M719.21,704.8S662.07,951.24,664.81,1148h63.53l61.48-2.73s-44.8-256.19,15-445.08l-45.09-6.56Z" transform="translate(-211.2 -170.58)"/></g><g id="Group_13" data-name="Group 13"><path id="Path_16" data-name="Path 16" class="cls-11" d="M563.55,1024.59,539.22,1030c-25.51,5.48-38.48-17.21-38.48-43.78s19.91-75.63,37.16-108.81c0,0,27.87-51.17,32-70.29s8.43-36.2,26.41-35.52,50.93-2.23,50.93-2.23,22.63.16,17.61,17.93c-4.92,17.59-16.63,21.46-30,28.48-14.35,7.51-36.22,11.82-41.69,31,0,0-27.39,117.63-29.51,177.89" transform="translate(-211.2 -170.58)"/></g><g id="Group_14" data-name="Group 14"><path id="Path_17" data-name="Path 17" class="cls-10" d="M647.21,769.35l-6-29.07c-1.86-8.19-5.74-10.36-11.93-9.66l-43.82,6.43c-7.37,1.05-10.48,5.32-9.69,11.1L583,783.29a30.2,30.2,0,0,0,17.59,2.94c12.79-.48,33.23-16.88,46.59-16.88" transform="translate(-211.2 -170.58)"/></g><g id="Group_15" data-name="Group 15"><path id="Path_18" data-name="Path 18" class="cls-11" d="M618.92,524.44c-15.57,56.66,26,111.61,43.45,128.6a65.36,65.36,0,0,0,44.91,21.19,89.52,89.52,0,0,1,12,29.21l85.62-3.94a280.22,280.22,0,0,1-10.93-40,265,265,0,0,1-5.47-92.22c4.78-34.85-21.17-11.77-35.17-31.09-9.37-12.92-37.93-54.05-63.88-52.69s-63.79,16.49-70.5,40.91" transform="translate(-211.2 -170.58)"/></g></g></g></svg>